<svg width="456" height="456" viewBox="0 0 456 456" fill="none" xmlns="http://www.w3.org/2000/svg">
    <path d="M352.716 229.175C353.431 160.367 298.175 104.007 229.3 103.293C160.424 102.579 104.009 157.78 103.294 226.589C102.58 295.398 157.835 351.757 226.711 352.471C295.586 353.185 352.001 297.984 352.716 229.175Z" fill="url(#paint0_linear_1664_234)" />
    <path d="M174.559 310.005L174.117 321.435H166.176L167.631 297.884H177.533L180.475 309.879H180.76L183.702 297.884H193.635L195.059 321.435H187.118L186.675 310.005H186.422L183.512 321.435H177.723L174.781 310.005H174.559ZM197.136 312.014C197.136 308.644 197.926 306.143 199.508 304.51C201.09 302.856 203.652 302.029 207.195 302.029C210.738 302.029 213.301 302.856 214.882 304.51C216.464 306.143 217.255 308.644 217.255 312.014C217.255 315.385 216.464 317.897 214.882 319.551C213.301 321.184 210.738 322 207.195 322C203.737 322 201.195 321.194 199.571 319.582C197.947 317.97 197.136 315.448 197.136 312.014ZM205.297 309.126V316.505H206.468C207.396 316.505 208.06 316.411 208.461 316.222C208.882 316.034 209.093 315.594 209.093 314.903V307.524H207.923C206.995 307.524 206.32 307.618 205.898 307.807C205.497 307.995 205.297 308.435 205.297 309.126ZM233.389 321.435H223.139L218.394 302.594H225.986L228.074 314.841H228.454L230.542 302.594H238.134L233.389 321.435ZM247.625 321.435H240.033V303.536L247.625 302.594V321.435ZM239.622 299.046C239.622 298.481 239.685 298.01 239.811 297.633C239.938 297.235 240.159 296.921 240.476 296.691C240.792 296.44 241.224 296.262 241.773 296.157C242.321 296.052 243.017 296 243.861 296C244.704 296 245.39 296.052 245.917 296.157C246.465 296.262 246.898 296.44 247.214 296.691C247.53 296.921 247.752 297.235 247.878 297.633C248.005 298.01 248.068 298.481 248.068 299.046C248.068 299.611 248.005 300.082 247.878 300.459C247.752 300.836 247.53 301.15 247.214 301.401C246.898 301.631 246.465 301.799 245.917 301.903C245.39 301.987 244.704 302.029 243.861 302.029C243.249 302.029 242.68 302.008 242.152 301.966C241.646 301.924 241.203 301.809 240.824 301.621C240.444 301.412 240.149 301.108 239.938 300.71C239.727 300.312 239.622 299.758 239.622 299.046ZM258.835 315.029V316.348C259.215 316.39 259.594 316.421 259.974 316.442C260.353 316.463 260.733 316.473 261.113 316.473C263.475 316.473 265.858 316.097 268.262 315.343L269.148 320.87C266.301 321.623 263.496 322 260.733 322C257.19 322 254.628 321.184 253.046 319.551C251.464 317.897 250.673 315.385 250.673 312.014C250.673 308.644 251.464 306.143 253.046 304.51C254.649 302.856 257.211 302.029 260.733 302.029C262.505 302.029 263.981 302.144 265.162 302.374C266.343 302.584 267.292 302.95 268.009 303.473C268.747 303.976 269.264 304.667 269.559 305.546C269.875 306.404 270.034 307.493 270.034 308.812C270.034 309.9 269.844 310.842 269.464 311.638C269.105 312.412 268.494 313.051 267.629 313.553C266.765 314.056 265.615 314.432 264.181 314.684C262.747 314.914 260.965 315.029 258.835 315.029ZM258.835 309.126V310.664H260.385C261.313 310.664 261.977 310.57 262.378 310.382C262.8 310.193 263.011 309.754 263.011 309.063V307.524H261.461C260.533 307.524 259.858 307.618 259.436 307.807C259.035 307.995 258.835 308.435 258.835 309.126ZM274.707 303.348C276.331 302.469 278.556 302.029 281.382 302.029C284.229 302.029 286.833 302.416 289.196 303.191L288.31 308.309C287.319 308.016 286.338 307.807 285.368 307.681C284.398 307.556 283.406 307.493 282.394 307.493C282.099 307.493 281.73 307.503 281.287 307.524C280.865 307.545 280.38 307.587 279.832 307.65V308.843C280.992 308.843 282.183 308.906 283.406 309.031C284.63 309.136 285.737 309.408 286.728 309.848C287.74 310.267 288.563 310.905 289.196 311.763C289.849 312.601 290.176 313.752 290.176 315.217C290.176 316.243 290.06 317.164 289.828 317.981C289.596 318.776 289.238 319.415 288.753 319.896C288.247 320.378 287.719 320.765 287.171 321.058C286.644 321.351 285.948 321.56 285.083 321.686C284.408 321.791 283.681 321.864 282.9 321.906C282.141 321.969 281.319 322 280.433 322C277.333 322 274.496 321.634 271.923 320.901L272.872 315.563C273.948 315.877 275.055 316.117 276.194 316.285C277.333 316.453 278.524 316.536 279.769 316.536C280.338 316.536 280.876 316.526 281.382 316.505C281.909 316.484 282.415 316.442 282.9 316.379V315.186C280.876 315.186 279.178 315.06 277.807 314.809C276.457 314.537 275.361 314.129 274.517 313.585C273.695 313.04 273.104 312.329 272.746 311.449C272.408 310.57 272.24 309.523 272.24 308.309C272.24 305.881 273.062 304.227 274.707 303.348Z" fill="#D6D1BC" />
    <path d="M169.127 286.419H162.017L156.261 277.827C156.156 277.676 156.072 277.45 156.009 277.149C155.946 276.847 155.904 276.449 155.883 275.953H155.726V286.419H148.176V262.194H155.286L161.042 270.786C161.147 270.936 161.231 271.162 161.294 271.464C161.357 271.765 161.399 272.164 161.42 272.659H161.577V262.194H169.127V286.419ZM172.151 276.729C172.151 273.262 172.937 270.689 174.51 269.009C176.083 267.308 178.631 266.457 182.154 266.457C185.678 266.457 188.226 267.308 189.798 269.009C191.371 270.689 192.158 273.262 192.158 276.729C192.158 280.196 191.371 282.78 189.798 284.481C188.226 286.16 185.678 287 182.154 287C178.715 287 176.188 286.171 174.573 284.513C172.958 282.855 172.151 280.26 172.151 276.729ZM180.267 273.757V281.348H181.431C182.354 281.348 183.014 281.251 183.413 281.057C183.832 280.863 184.042 280.411 184.042 279.7V272.11H182.878C181.955 272.11 181.284 272.207 180.865 272.401C180.466 272.594 180.267 273.047 180.267 273.757ZM208.201 286.419H198.009L193.29 267.039H200.84L202.916 279.636H203.294L205.37 267.039H212.92L208.201 286.419ZM223.742 266.457C229.782 266.457 232.802 268.589 232.802 272.853V286.419H229.027L226.888 284.222C226.51 284.653 226.059 285.041 225.535 285.385C225.032 285.729 224.486 286.02 223.899 286.257C223.312 286.494 222.714 286.677 222.106 286.806C221.498 286.935 220.911 287 220.345 287C219.275 287 218.31 286.882 217.45 286.645C216.612 286.429 215.898 286.074 215.311 285.579C214.724 285.083 214.273 284.427 213.959 283.609C213.644 282.79 213.487 281.789 213.487 280.605C213.487 275.953 216.905 273.628 223.742 273.628H225.252V272.239C224.853 272.218 224.486 272.196 224.151 272.174C223.836 272.153 223.543 272.142 223.27 272.142C220.439 272.142 217.996 272.497 215.94 273.208L215.028 267.652C217.545 266.856 220.449 266.457 223.742 266.457ZM221.099 279.765V281.348H222.672C223.763 281.348 224.476 281.218 224.811 280.96C225.105 280.68 225.252 280.346 225.252 279.959V278.118H223.71C222.809 278.118 222.148 278.214 221.729 278.408C221.309 278.602 221.099 279.054 221.099 279.765ZM238.014 267.814C239.629 266.91 241.841 266.457 244.651 266.457C247.482 266.457 250.072 266.856 252.421 267.652L251.54 272.917C250.555 272.616 249.579 272.401 248.615 272.271C247.65 272.142 246.664 272.078 245.658 272.078C245.364 272.078 244.997 272.088 244.557 272.11C244.137 272.131 243.655 272.174 243.11 272.239V273.466C244.263 273.466 245.448 273.531 246.664 273.66C247.881 273.768 248.982 274.048 249.967 274.5C250.974 274.931 251.792 275.587 252.421 276.47C253.071 277.332 253.396 278.516 253.396 280.023C253.396 281.078 253.281 282.026 253.05 282.866C252.82 283.684 252.463 284.341 251.981 284.836C251.477 285.331 250.953 285.729 250.408 286.031C249.884 286.333 249.192 286.548 248.332 286.677C247.661 286.785 246.937 286.86 246.161 286.903C245.406 286.968 244.588 287 243.707 287C240.625 287 237.804 286.623 235.245 285.869L236.189 280.379C237.259 280.702 238.36 280.949 239.492 281.121C240.625 281.294 241.809 281.38 243.047 281.38C243.613 281.38 244.148 281.369 244.651 281.348C245.175 281.326 245.679 281.283 246.161 281.218V279.991C244.148 279.991 242.46 279.862 241.097 279.603C239.754 279.324 238.664 278.904 237.825 278.344C237.007 277.784 236.42 277.052 236.063 276.147C235.728 275.243 235.56 274.166 235.56 272.917C235.56 270.419 236.378 268.718 238.014 267.814ZM257.859 267.814C259.474 266.91 261.686 266.457 264.496 266.457C267.327 266.457 269.918 266.856 272.266 267.652L271.385 272.917C270.4 272.616 269.425 272.401 268.46 272.271C267.495 272.142 266.51 272.078 265.503 272.078C265.209 272.078 264.842 272.088 264.402 272.11C263.982 272.131 263.5 272.174 262.955 272.239V273.466C264.108 273.466 265.293 273.531 266.51 273.66C267.726 273.768 268.827 274.048 269.813 274.5C270.819 274.931 271.637 275.587 272.266 276.47C272.916 277.332 273.241 278.516 273.241 280.023C273.241 281.078 273.126 282.026 272.895 282.866C272.665 283.684 272.308 284.341 271.826 284.836C271.323 285.331 270.798 285.729 270.253 286.031C269.729 286.333 269.037 286.548 268.177 286.677C267.506 286.785 266.782 286.86 266.006 286.903C265.251 286.968 264.433 287 263.553 287C260.47 287 257.649 286.623 255.091 285.869L256.034 280.379C257.104 280.702 258.205 280.949 259.337 281.121C260.47 281.294 261.655 281.38 262.892 281.38C263.458 281.38 263.993 281.369 264.496 281.348C265.021 281.326 265.524 281.283 266.006 281.218V279.991C263.993 279.991 262.305 279.862 260.942 279.603C259.6 279.324 258.509 278.904 257.67 278.344C256.852 277.784 256.265 277.052 255.908 276.147C255.573 275.243 255.405 274.166 255.405 272.917C255.405 270.419 256.223 268.718 257.859 267.814ZM284.813 266.457C290.853 266.457 293.873 268.589 293.873 272.853V286.419H290.098L287.959 284.222C287.582 284.653 287.131 285.041 286.606 285.385C286.103 285.729 285.558 286.02 284.971 286.257C284.383 286.494 283.786 286.677 283.178 286.806C282.569 286.935 281.982 287 281.416 287C280.346 287 279.382 286.882 278.522 286.645C277.683 286.429 276.97 286.074 276.383 285.579C275.796 285.083 275.345 284.427 275.03 283.609C274.716 282.79 274.558 281.789 274.558 280.605C274.558 275.953 277.977 273.628 284.813 273.628H286.323V272.239C285.925 272.218 285.558 272.196 285.222 272.174C284.908 272.153 284.614 272.142 284.341 272.142C281.51 272.142 279.067 272.497 277.012 273.208L276.1 267.652C278.616 266.856 281.521 266.457 284.813 266.457ZM282.171 279.765V281.348H283.744C284.834 281.348 285.547 281.218 285.883 280.96C286.177 280.68 286.323 280.346 286.323 279.959V278.118H284.782C283.88 278.118 283.22 278.214 282.8 278.408C282.381 278.602 282.171 279.054 282.171 279.765ZM298.016 272.045H296.128V267.039H298.016V263.938L305.565 262V267.039H308.176V272.045H305.565V280.863C305.88 280.928 306.226 280.992 306.603 281.057C306.981 281.1 307.379 281.132 307.799 281.154L307.453 286.838C304.013 286.838 301.77 286.645 300.721 286.257C299.84 285.934 299.169 285.525 298.708 285.03C298.246 284.513 298.016 283.759 298.016 282.769V272.045Z" fill="#EDE8D0" />
    <path d="M178.176 179C184.251 179 189.176 174.075 189.176 168C189.176 161.925 184.251 157 178.176 157C172.101 157 167.176 161.925 167.176 168C167.176 174.075 172.101 179 178.176 179Z" fill="#536057" />
    <path d="M291.176 181V237.665L280.838 248H177.495L167.176 237.665V181H291.176Z" fill="#EDE8D0" />
    <path d="M192.212 169L186.176 181H203.141L209.176 169H192.212Z" fill="#F0E057" />
    <path d="M277.176 181H291.176V169H282.996L277.176 181Z" fill="#3F3F3F" />
    <path d="M222.212 169L216.176 181H233.141L239.176 169H222.212Z" fill="#6EB9D2" />
    <path d="M252.211 169L246.176 181H263.141L269.176 169H252.211Z" fill="#CEDEF2" />
    <path d="M179.176 169L174.573 178.3L173.235 181H167.176V169H179.176Z" fill="#3F3F3F" />
    <path d="M269.386 169L263.176 181H276.967L283.176 169H269.386Z" fill="#616C7D" />
    <path d="M239.076 169L233.176 181H246.277L252.176 169H239.076Z" fill="#C03555" />
    <path d="M209.075 169L203.176 181H216.277L222.176 169H209.075Z" fill="#448538" />
    <path d="M179.075 169L173.176 181H186.277L192.176 169H179.075Z" fill="#616C7D" />
    <path d="M267.176 149.696L251.106 153L243.176 142.303L259.228 139L267.176 149.696Z" fill="#CEDEF2" />
    <path d="M179.176 166.689L167.602 168.98L167.464 169L165.176 157.363L171.033 156.198L172.018 156L173.616 158.391L179.176 166.689Z" fill="#3F3F3F" />
    <path d="M238.176 154.933L228.052 156.784L221.456 158L213.176 148.086L228.052 145.336L229.916 145L238.176 154.933Z" fill="#6EB9D2" />
    <path d="M208.176 160.932L192.125 164L184.176 154.086L200.228 151L208.176 160.932Z" fill="#F0E057" />
    <path d="M289.176 145.344L280.73 147L280.554 146.827L270.176 137.255L272.634 136.773L285.567 134.25L286.913 134L287.303 135.964L289.176 145.344Z" fill="#3F3F3F" />
    <path d="M192.176 164.439L188.552 165.168L179.267 167L173.116 159.062L171.176 156.541L172.156 156.344L184.086 154L192.176 164.439Z" fill="#616C7D" />
    <path d="M221.176 158.439L208.267 161L200.176 150.541L213.086 148L221.176 158.439Z" fill="#448538" />
    <path d="M251.176 152.443L238.255 155L230.176 144.557L243.098 142L251.176 152.443Z" fill="#C03555" />
    <path d="M280.176 146.443L267.267 149L259.176 138.557L269.617 136.492L272.086 136L280.039 146.266L280.078 146.306L280.176 146.443Z" fill="#616C7D" />
    <path d="M170.676 164C171.505 164 172.176 163.328 172.176 162.5C172.176 161.672 171.505 161 170.676 161C169.848 161 169.176 161.672 169.176 162.5C169.176 163.328 169.848 164 170.676 164Z" fill="#F0E1B7" />
    <path d="M170.676 177C171.505 177 172.176 176.328 172.176 175.5C172.176 174.672 171.505 174 170.676 174C169.848 174 169.176 174.672 169.176 175.5C169.176 176.328 169.848 177 170.676 177Z" fill="#F0E1B7" />
    <path d="M273.176 192H185.176V209H273.176V192Z" fill="#404441" />
    <path d="M194.292 196L192.176 197.587V199.355L194.292 197.768V205H196.176V196H194.292Z" fill="#E3354E" />
    <path d="M199.176 196V198.893H201.1V197.487H203.986L200.425 205H202.615L206.176 197.487V196H199.176Z" fill="#E3354E" />
    <path d="M207.176 203V205H210.176V203H207.176Z" fill="#E3354E" />
    <path d="M214.282 196L212.176 197.587V199.355L214.282 197.768V205H216.176V196H214.282Z" fill="#E3354E" />
    <path d="M225.13 200.639C225.295 200.46 225.442 200.301 225.571 200.141C225.699 199.982 225.809 199.823 225.901 199.664C225.993 199.505 226.066 199.345 226.103 199.186C226.158 199.007 226.176 198.808 226.176 198.589C226.176 198.19 226.103 197.832 225.956 197.513C225.809 197.195 225.607 196.916 225.332 196.697C225.075 196.478 224.763 196.299 224.396 196.179C224.011 196.06 223.626 196 223.185 196C222.763 196 222.36 196.06 221.993 196.179C221.644 196.299 221.314 196.458 221.039 196.697C220.782 196.916 220.561 197.195 220.415 197.513C220.25 197.832 220.176 198.19 220.176 198.609H221.974C221.974 198.39 222.011 198.21 222.084 198.071C222.158 197.912 222.25 197.792 222.36 197.712C222.47 197.633 222.598 197.553 222.745 197.533C222.892 197.493 223.039 197.474 223.185 197.474C223.571 197.474 223.864 197.573 224.066 197.772C224.268 197.972 224.378 198.25 224.378 198.589C224.378 198.788 224.341 198.967 224.25 199.126C224.176 199.285 224.048 199.465 223.864 199.664L220.176 203.527V205H226.176V203.527H222.36L225.13 200.639Z" fill="#E3354E" />
    <path d="M228.176 203V205H230.176V203H228.176Z" fill="#E3354E" />
    <path d="M237.919 197.523C237.773 197.187 237.552 196.91 237.277 196.692C237.002 196.455 236.69 196.297 236.323 196.178C235.956 196.059 235.571 196 235.185 196C234.763 196 234.396 196.059 234.03 196.178C233.662 196.297 233.351 196.455 233.075 196.692C232.8 196.91 232.58 197.187 232.415 197.523C232.25 197.84 232.176 198.215 232.176 198.65V202.369C232.176 202.785 232.25 203.16 232.415 203.497C232.58 203.833 232.8 204.109 233.075 204.327C233.35 204.545 233.662 204.723 234.03 204.842C234.397 204.941 234.763 205 235.185 205C235.571 205 235.956 204.941 236.323 204.842C236.69 204.723 237.002 204.545 237.277 204.327C237.552 204.11 237.773 203.833 237.919 203.497C238.085 203.16 238.176 202.785 238.176 202.369V198.65C238.176 198.215 238.085 197.84 237.919 197.523ZM236.378 202.369C236.378 202.725 236.268 203.022 236.048 203.239C235.828 203.457 235.534 203.556 235.186 203.556C234.819 203.556 234.525 203.457 234.305 203.239C234.085 203.022 233.975 202.725 233.975 202.369V198.67C233.975 198.295 234.085 197.998 234.305 197.78C234.525 197.563 234.819 197.464 235.186 197.464C235.534 197.464 235.828 197.563 236.048 197.78C236.268 197.998 236.378 198.295 236.378 198.67V202.369Z" fill="#E3354E" />
    <path d="M243.282 196L241.176 197.587V199.355L243.282 197.768V205H245.176V196H243.282Z" fill="#E3354E" />
    <path d="M248.176 203V205H251.176V203H248.176Z" fill="#E3354E" />
    <path d="M258.898 197.523C258.705 197.187 258.449 196.91 258.127 196.692C257.828 196.455 257.442 196.297 257.014 196.178C256.586 196.059 256.158 196 255.687 196C255.216 196 254.766 196.059 254.338 196.178C253.932 196.297 253.546 196.455 253.225 196.692C252.904 196.91 252.647 197.187 252.476 197.523C252.283 197.84 252.176 198.215 252.176 198.65V202.369C252.176 202.785 252.283 203.16 252.476 203.497C252.647 203.833 252.904 204.109 253.225 204.327C253.546 204.545 253.932 204.723 254.338 204.842C254.766 204.941 255.216 205 255.687 205C256.158 205 256.586 204.941 257.014 204.842C257.442 204.723 257.828 204.545 258.127 204.327C258.449 204.11 258.705 203.833 258.898 203.497C259.091 203.16 259.176 202.785 259.176 202.369V198.65C259.176 198.215 259.091 197.84 258.898 197.523ZM257.078 202.369C257.078 202.725 256.95 203.022 256.693 203.239C256.436 203.457 256.115 203.556 255.687 203.556C255.259 203.556 254.938 203.457 254.659 203.239C254.402 203.022 254.274 202.725 254.274 202.369V198.67C254.274 198.295 254.402 197.998 254.659 197.78C254.938 197.563 255.259 197.464 255.687 197.464C256.115 197.464 256.436 197.563 256.693 197.78C256.95 197.998 257.078 198.295 257.078 198.67V202.369Z" fill="#E3354E" />
    <path d="M266.767 201.083C266.481 200.767 266.153 200.53 265.764 200.352C266.112 200.194 266.419 199.976 266.665 199.699C266.89 199.402 267.013 199.027 267.013 198.532C267.013 198.176 266.931 197.82 266.767 197.523C266.603 197.207 266.378 196.93 266.071 196.712C265.785 196.495 265.416 196.317 265.007 196.198C264.597 196.059 264.147 196 263.676 196C263.206 196 262.776 196.059 262.366 196.178C261.957 196.297 261.609 196.455 261.302 196.673C261.015 196.89 260.77 197.147 260.586 197.464C260.401 197.78 260.319 198.136 260.299 198.532H262.305C262.325 198.196 262.469 197.919 262.714 197.741C262.981 197.543 263.287 197.464 263.676 197.464C264.024 197.464 264.352 197.563 264.618 197.741C264.884 197.939 265.007 198.216 265.007 198.592C265.007 198.908 264.905 199.165 264.7 199.383C264.475 199.6 264.127 199.699 263.615 199.699H263.328V201.103H263.615C264.127 201.103 264.495 201.222 264.761 201.44C265.027 201.657 265.171 201.954 265.171 202.33C265.171 202.726 265.027 203.022 264.761 203.24C264.475 203.457 264.127 203.556 263.676 203.556C263.492 203.556 263.308 203.537 263.124 203.477C262.939 203.438 262.776 203.378 262.653 203.28C262.51 203.181 262.407 203.062 262.326 202.904C262.244 202.765 262.203 202.587 262.182 202.389H260.176C260.197 202.864 260.299 203.26 260.483 203.576C260.688 203.912 260.954 204.189 261.261 204.387C261.589 204.604 261.957 204.763 262.387 204.862C262.796 204.961 263.226 205 263.676 205C264.168 205 264.618 204.96 265.027 204.842C265.457 204.743 265.826 204.584 266.132 204.347C266.46 204.129 266.706 203.853 266.89 203.536C267.074 203.2 267.176 202.804 267.176 202.369C267.177 201.835 267.033 201.4 266.767 201.083Z" fill="#E3354E" />
    <path d="M174.176 218H285.176" stroke="#616C7D" stroke-width="0.8134" stroke-miterlimit="10" />
    <path d="M209.176 221V239" stroke="#616C7D" stroke-width="0.8134" stroke-miterlimit="10" />
    <path d="M250.176 221V239" stroke="#616C7D" stroke-width="0.8134" stroke-miterlimit="10" />
    <path d="M268.676 225L269.974 228.82H274.176L270.777 231.18L272.076 235L268.676 232.639L265.277 235L266.576 231.18L263.176 228.82H267.378L268.676 225Z" fill="#BFC6D0" />
    <g opacity="0.1">
        <path d="M228.072 180.992V247.763H280.79L291.106 237.46V180.992H228.072Z" fill="#040000" />
        <path d="M280.618 146.864L280.48 146.726L280.579 146.864L267.561 149.43L251.066 152.667L238.048 155.232L228.072 157.186V145.108L229.909 144.753L242.927 142.187L259.402 138.951L269.931 136.879L272.42 136.385L285.517 133.8L286.88 133.543L287.275 135.556L289.172 145.167L280.618 146.864Z" fill="#040000" />
        <path d="M246.655 180.991H263.451H276.721H291.094V169.142H282.696H269.426H252.63H239.36H228.072V180.991H233.385H246.655Z" fill="#040000" />
    </g>
    <defs>
        <linearGradient id="paint0_linear_1664_234" x1="103.295" y1="226.589" x2="352.716" y2="229.18" gradientUnits="userSpaceOnUse">
            <stop offset="1" stop-color="#0B020D" />
        </linearGradient>
    </defs>
</svg>
